<?xml version="1.0" encoding="iso-8859-1"?>
<!-- Generator: Adobe Illustrator 18.0.0, SVG Export Plug-In . SVG Version: 6.00 Build 0)  -->
<!DOCTYPE svg PUBLIC "-//W3C//DTD SVG 1.1//EN" "http://www.w3.org/Graphics/SVG/1.1/DTD/svg11.dtd">
<svg version="1.1" id="Capa_1" xmlns="http://www.w3.org/2000/svg" xmlns:xlink="http://www.w3.org/1999/xlink" x="0px" y="0px"
	 viewBox="0 0 343.361 343.361" style="enable-background:new 0 0 343.361 343.361;" xml:space="preserve">
<g>
	<g>
		<path d="M316.606,108.938c0-4.143-3.357-7.5-7.5-7.5h-5.803c-1.596-3.916-4.16-7.281-6.389-10.195
			c-1.906-2.493-3.706-4.849-4.434-6.82c-0.711-1.926-0.828-4.899-0.953-8.047c-0.227-5.694-0.508-12.781-4.895-18.436
			c-4.008-5.166-10.104-7.172-15.481-8.942c-3.135-1.032-6.376-2.099-8.22-3.549c-1.575-1.238-3.234-4.02-4.839-6.709
			c-2.916-4.888-6.222-10.428-12.245-13.47c-5.58-2.816-11.712-2.298-17.125-1.842c-3.367,0.284-6.85,0.577-9.089-0.107
			c-1.95-0.598-4.521-2.707-7.009-4.746c-4.28-3.511-9.133-7.49-15.584-8.424c-6.109-0.877-11.721,1.446-16.67,3.502
			c-3.134,1.302-6.373,2.647-8.691,2.647c-2.316,0-5.557-1.346-8.689-2.646c-4.951-2.058-10.562-4.389-16.674-3.503
			c-6.451,0.935-11.302,4.913-15.582,8.424c-2.486,2.039-5.059,4.148-7.008,4.746c-2.24,0.686-5.725,0.394-9.092,0.107
			c-5.411-0.457-11.545-0.976-17.121,1.842c-6.026,3.042-9.332,8.583-12.248,13.472c-1.604,2.688-3.262,5.47-4.835,6.706
			c-1.845,1.45-5.086,2.517-8.221,3.549c-5.378,1.77-11.474,3.775-15.481,8.941c-4.388,5.654-4.669,12.742-4.895,18.438
			c-0.125,3.147-0.243,6.12-0.953,8.046c-0.728,1.973-2.528,4.328-4.436,6.822c-2.228,2.913-4.789,6.279-6.385,10.194h-5.807
			c-4.142,0-7.5,3.357-7.5,7.5c0,54.559,32.042,100.221,74.525,110.821v13.51c0,4.143,3.357,7.5,7.5,7.5H234.58
			c4.143,0,7.5-3.357,7.5-7.5v-13.51C284.564,209.159,316.606,163.497,316.606,108.938z M58.362,100.354
			c2.383-3.116,5.083-6.648,6.593-10.742c1.53-4.15,1.702-8.467,1.868-12.641c0.156-3.924,0.316-7.98,1.758-9.839
			c1.199-1.545,4.982-2.789,8.318-3.888c4.164-1.37,8.883-2.923,12.805-6.005c3.758-2.957,6.248-7.131,8.445-10.813
			c1.961-3.288,3.988-6.688,6.125-7.767c1.787-0.901,5.504-0.587,9.1-0.284c4.562,0.386,9.734,0.822,14.745-0.712
			c4.78-1.464,8.685-4.665,12.128-7.489c2.902-2.38,5.902-4.841,8.219-5.177c2.027-0.299,5.454,1.131,8.771,2.51
			c4.281,1.778,9.135,3.794,14.443,3.794c5.31,0,10.162-2.016,14.445-3.795c3.316-1.377,6.746-2.813,8.769-2.509
			c2.317,0.335,5.317,2.796,8.22,5.176c3.443,2.824,7.346,6.025,12.129,7.491c5.008,1.532,10.179,1.095,14.742,0.711
			c3.596-0.305,7.314-0.618,9.102,0.285c2.137,1.078,4.164,4.477,6.125,7.764c2.197,3.684,4.688,7.858,8.449,10.815
			c3.918,3.081,8.638,4.635,12.801,6.006c3.338,1.099,7.121,2.344,8.32,3.89c1.441,1.856,1.602,5.912,1.758,9.835
			c0.166,4.175,0.336,8.492,1.869,12.645c1.51,4.093,4.209,7.623,6.59,10.738c0.275,0.36,0.551,0.724,0.825,1.085H57.536
			C57.81,101.077,58.086,100.715,58.362,100.354z M227.08,225.769H116.28v-3.793c1.283,0.063,109.518,0.063,110.801,0V225.769z
			 M223.211,207.081H120.149c-41.211,0-75.097-40.018-78.168-90.643h259.398C298.309,167.063,264.422,207.081,223.211,207.081z"/>
		<path d="M343.352,273.812c0.198-4.124-2.975-7.633-7.098-7.849L9.343,248.818c-1.985-0.114-3.946,0.589-5.426,1.929
			c-1.479,1.34-2.364,3.214-2.458,5.208l-1.143,24.253c-0.094,2.006,0.619,3.966,1.982,5.441c1.363,1.476,3.26,2.343,5.268,2.407
			l94.484,3.045l-94.793,3.052c-2.007,0.064-3.904,0.932-5.268,2.407c-1.363,1.475-2.076,3.436-1.982,5.441l1.143,24.253
			c0.094,1.994,0.978,3.868,2.458,5.208c1.382,1.251,3.177,1.939,5.032,1.939c0.131,0,0.263-0.004,0.394-0.011l326.911-17.145
			c4.072-0.213,7.228-3.642,7.103-7.718L343.352,273.812z M16.088,264.192l311.924,16.359l-0.135,2.818L15.659,273.309
			L16.088,264.192z M15.78,318.017l-0.43-9.117l312.396-10.058l0.086,2.809L15.78,318.017z"/>
	</g>
</g>
<g>
</g>
<g>
</g>
<g>
</g>
<g>
</g>
<g>
</g>
<g>
</g>
<g>
</g>
<g>
</g>
<g>
</g>
<g>
</g>
<g>
</g>
<g>
</g>
<g>
</g>
<g>
</g>
<g>
</g>
</svg>
